<svg width="84" height="36" viewBox="0 0 84 36" fill="none" xmlns="http://www.w3.org/2000/svg">
<path d="M76.5476 26.4202C75.7712 26.4202 75.0724 26.2727 74.4513 25.9776C73.8457 25.6671 73.3643 25.2478 73.0072 24.7199C72.65 24.1919 72.4714 23.6018 72.4714 22.9496C72.4714 22.1111 72.6811 21.4512 73.1003 20.9698C73.5351 20.4884 74.2416 20.1468 75.2199 19.9449C76.2137 19.7431 77.5647 19.6422 79.2728 19.6422H80.3209V20.8766H79.2961C78.3488 20.8766 77.5569 20.9077 76.9203 20.9698C76.2836 21.0319 75.7789 21.1406 75.4063 21.2959C75.0336 21.4512 74.7696 21.653 74.6143 21.9015C74.459 22.1499 74.3814 22.4605 74.3814 22.8332C74.3814 23.4698 74.5988 23.99 75.0336 24.3938C75.4839 24.7975 76.0895 24.9994 76.8504 24.9994C77.4715 24.9994 78.015 24.8518 78.4808 24.5568C78.9622 24.2618 79.3349 23.858 79.5989 23.3456C79.8784 22.8332 80.0181 22.2431 80.0181 21.5754V18.9201C80.0181 17.9573 79.824 17.2663 79.4358 16.8471C79.0476 16.4123 78.411 16.1949 77.5258 16.1949C76.8426 16.1949 76.1827 16.2958 75.546 16.4977C74.9094 16.684 74.2572 16.9946 73.5895 17.4294L72.9373 16.0551C73.341 15.7756 73.7991 15.535 74.3115 15.3331C74.824 15.1157 75.3597 14.9527 75.9187 14.844C76.4777 14.7353 77.0134 14.6809 77.5258 14.6809C78.5041 14.6809 79.3116 14.844 79.9482 15.17C80.5849 15.4806 81.0585 15.962 81.3691 16.6142C81.6796 17.2508 81.8349 18.0738 81.8349 19.0831V26.2106H80.0647V23.5785H80.2743C80.1501 24.1686 79.9094 24.6733 79.5523 25.0925C79.2107 25.5118 78.7836 25.8379 78.2712 26.0708C77.7588 26.3037 77.1842 26.4202 76.5476 26.4202Z" fill="black"/>
<path d="M67.3246 26.4202C66.191 26.4202 65.2128 26.1717 64.3898 25.6748C63.5668 25.1779 62.9301 24.4869 62.4798 23.6018C62.045 22.7012 61.8276 21.6608 61.8276 20.4807C61.8276 19.285 62.045 18.2524 62.4798 17.3828C62.9301 16.5132 63.5668 15.8455 64.3898 15.3797C65.2128 14.9138 66.191 14.6809 67.3246 14.6809C68.0234 14.6809 68.7144 14.8051 69.3976 15.0536C70.0808 15.302 70.6476 15.6514 71.0979 16.1017L70.4458 17.476C69.9954 17.0412 69.4985 16.7229 68.9551 16.521C68.4271 16.3191 67.9224 16.2182 67.4411 16.2182C66.2609 16.2182 65.3525 16.5909 64.7159 17.3362C64.0792 18.066 63.7609 19.122 63.7609 20.504C63.7609 21.8549 64.0792 22.9264 64.7159 23.7183C65.3525 24.4947 66.2609 24.8829 67.4411 24.8829C67.9224 24.8829 68.4271 24.782 68.9551 24.5801C69.4985 24.3782 69.9954 24.0521 70.4458 23.6018L71.0979 24.9761C70.6476 25.4264 70.0731 25.7835 69.3743 26.0475C68.6911 26.296 68.0078 26.4202 67.3246 26.4202Z" fill="black"/>
<path d="M57.1121 12.0722V9.95264H59.4413V12.0722H57.1121ZM57.345 26.2106V14.8906H59.2316V26.2106H57.345Z" fill="black"/>
<path d="M44.3398 26.2106V9.78955H46.2265V17.4061H45.9237C46.2498 16.5055 46.7778 15.83 47.5076 15.3797C48.2529 14.9138 49.107 14.6809 50.0697 14.6809C50.9704 14.6809 51.7157 14.844 52.3058 15.1701C52.9114 15.4961 53.3617 15.993 53.6567 16.6608C53.9518 17.3129 54.0993 18.1437 54.0993 19.153V26.2106H52.2126V19.2695C52.2126 18.5707 52.1194 17.9962 51.9331 17.5459C51.7623 17.0955 51.4828 16.7617 51.0946 16.5443C50.7219 16.3269 50.2328 16.2182 49.6272 16.2182C48.9439 16.2182 48.3461 16.3657 47.8337 16.6608C47.3212 16.9558 46.9253 17.3673 46.6458 17.8952C46.3663 18.4232 46.2265 19.0443 46.2265 19.7586V26.2106H44.3398Z" fill="black"/>
<path d="M40.9712 26.4201C39.6358 26.4201 38.6342 26.063 37.9665 25.3487C37.2988 24.6344 36.965 23.6173 36.965 22.2974V16.3579H34.7522V14.8905H36.965V11.4199H38.8516V14.8905H42.4386V16.3579H38.8516V22.111C38.8516 22.9962 39.038 23.6716 39.4106 24.1375C39.7833 24.5878 40.3889 24.8129 41.2274 24.8129C41.4759 24.8129 41.7243 24.7819 41.9728 24.7198C42.2212 24.6577 42.4464 24.5956 42.6483 24.5334L42.9744 25.9776C42.7725 26.0863 42.4774 26.1872 42.0892 26.2804C41.701 26.3735 41.3284 26.4201 40.9712 26.4201Z" fill="black"/>
<path d="M28.5393 26.4202C27.4368 26.4202 26.4818 26.1795 25.6743 25.6981C24.8669 25.2168 24.238 24.5413 23.7877 23.6717C23.3529 22.7866 23.1355 21.7462 23.1355 20.5505C23.1355 19.3549 23.3529 18.3223 23.7877 17.4527C24.238 16.5676 24.8669 15.8843 25.6743 15.403C26.4818 14.9216 27.4368 14.6809 28.5393 14.6809C29.6418 14.6809 30.5968 14.9216 31.4042 15.403C32.2117 15.8843 32.8328 16.5676 33.2676 17.4527C33.7179 18.3223 33.9431 19.3549 33.9431 20.5505C33.9431 21.7462 33.7179 22.7866 33.2676 23.6717C32.8328 24.5413 32.2117 25.2168 31.4042 25.6981C30.5968 26.1795 29.6418 26.4202 28.5393 26.4202ZM28.5393 24.9062C29.6107 24.9062 30.457 24.5335 31.0781 23.7882C31.7148 23.0273 32.0331 21.9403 32.0331 20.5273C32.0331 19.1297 31.7148 18.0583 31.0781 17.3129C30.457 16.5676 29.6107 16.1949 28.5393 16.1949C27.4834 16.1949 26.6371 16.5676 26.0004 17.3129C25.3638 18.0583 25.0455 19.1297 25.0455 20.5273C25.0455 21.9403 25.3638 23.0273 26.0004 23.7882C26.6371 24.5335 27.4834 24.9062 28.5393 24.9062Z" fill="black"/>
<path d="M20.7586 26.4202C19.6095 26.4202 18.74 26.0786 18.1499 25.3953C17.5754 24.7121 17.2881 23.7338 17.2881 22.4605V9.78955H19.1748V22.3208C19.1748 22.8642 19.2446 23.3223 19.3844 23.695C19.5397 24.0677 19.7648 24.3472 20.0599 24.5335C20.3549 24.7199 20.7198 24.813 21.1546 24.813C21.3409 24.813 21.5195 24.8053 21.6903 24.7897C21.8767 24.7587 22.0475 24.7199 22.2027 24.6733L22.1562 26.2571C21.9077 26.3037 21.667 26.3426 21.4341 26.3736C21.2167 26.4047 20.9915 26.4202 20.7586 26.4202Z" fill="black"/>
<path d="M9.20972 26.3403C7.5948 26.3403 6.21279 25.9987 5.06371 25.3154C3.91463 24.6322 3.02952 23.6617 2.4084 22.4039C1.8028 21.1461 1.5 19.6476 1.5 17.9085C1.5 16.1693 1.8028 14.6786 2.4084 13.4364C3.02952 12.1786 3.91463 11.2081 5.06371 10.5249C6.21279 9.84162 7.5948 9.5 9.20972 9.5C10.3433 9.5 11.3914 9.67857 12.3542 10.0357C13.3169 10.3929 14.1244 10.9131 14.7766 11.5963L14.0312 13.1569C13.3169 12.4892 12.5716 12.0078 11.7952 11.7128C11.0343 11.4022 10.188 11.2469 9.25631 11.2469C7.40846 11.2469 5.9954 11.8292 5.01712 12.9938C4.03885 14.1584 3.54972 15.7967 3.54972 17.9085C3.54972 20.0203 4.03885 21.6663 5.01712 22.8464C5.9954 24.0111 7.40846 24.5934 9.25631 24.5934C10.188 24.5934 11.0343 24.4458 11.7952 24.1508C12.5716 23.8402 13.3169 23.3511 14.0312 22.6834L14.7766 24.244C14.1244 24.9117 13.3169 25.4319 12.3542 25.8046C11.3914 26.1617 10.3433 26.3403 9.20972 26.3403Z" fill="black"/>
</svg>
